name Walk2.mot
datacolumns 19
datarows 12
range 1.73000000 1.78500000
endheader

                time	   L_ground_force_vx	   L_ground_force_vy	   L_ground_force_vz	   L_ground_force_px	   L_ground_force_py	   L_ground_force_pz	   R_ground_force_vx	   R_ground_force_vy	   R_ground_force_vz	   R_ground_force_px	   R_ground_force_py	   R_ground_force_pz	   L_ground_torque_x	   L_ground_torque_y	   L_ground_torque_z	   R_ground_torque_x	   R_ground_torque_y	   R_ground_torque_z	
          1.73000000	          0.00000000	         -0.00000000	         -0.00000000	         -0.00000000	          0.00000000	         -0.00000000	         25.66714282	        698.60753948	        -17.58154098	         -0.12743828	          0.00000000	          0.32793594	          0.00000000	         -0.00000000	          0.00000000	          0.00000000	          3.90726202	          0.00000000	
          1.73500000	          0.00000000	         -0.00000000	          0.00000000	         -0.00000000	          0.00000000	         -0.00000000	         27.78269962	        708.19289730	        -18.39083307	         -0.12444382	          0.00000000	          0.32825447	          0.00000000	          0.00000000	          0.00000000	          0.00000000	          3.72367750	          0.00000000	
          1.74000000	         -0.00000000	         -0.00000000	          0.00000000	          0.00000000	          0.00000000	          0.00000000	         29.77823664	        716.96602302	        -19.45001659	         -0.12162194	          0.00000000	          0.32844890	          0.00000000	          0.00000000	          0.00000000	          0.00000000	          3.46508313	          0.00000000	
          1.74500000	         -0.00000000	          0.00000000	         -0.00000000	          0.00000000	          0.00000000	          0.00000000	         31.59665435	        725.00663152	        -20.67916397	         -0.11864395	          0.00000000	          0.32863630	          0.00000000	          0.00000000	          0.00000000	          0.00000000	          3.25199454	          0.00000000	
          1.75000000	         -0.00000000	          0.00000000	         -0.00000000	          0.00000000	          0.00000000	          0.00000000	         33.45145580	        732.50680382	        -21.94017740	         -0.11549507	          0.00000000	          0.32898111	          0.00000000	         -0.00000000	          0.00000000	          0.00000000	          3.03875044	          0.00000000	
          1.75500000	          0.00000000	          0.00000000	         -0.00000000	         -0.00000000	          0.00000000	         -0.00000000	         35.43923935	        739.62529671	        -23.02594838	         -0.11249798	          0.00000000	          0.32906400	          0.00000000	         -0.00000000	          0.00000000	          0.00000000	          2.85966009	          0.00000000	
          1.76000000	          0.00000000	         -0.00000002	          0.00000000	         -0.00000000	          0.00000000	         -0.00000000	         37.75613535	        746.73589425	        -23.84083963	         -0.10959037	          0.00000000	          0.32891315	          0.00000000	         -0.00000000	          0.00000000	          0.00000000	          2.67998391	          0.00000000	
          1.76500000	          0.00000000	         -0.00000008	          0.00000000	         -0.00000000	          0.00000000	         -0.00000000	         40.54205000	        753.73248495	        -24.33679898	         -0.10679952	          0.00000000	          0.32897693	          0.00000000	          0.00000000	          0.00000000	          0.00000000	          2.42192005	          0.00000000	
          1.77000000	         -0.00000001	         -0.00000004	          0.00000001	          0.00000000	          0.00000000	          0.00000000	         43.82106801	        760.88158418	        -24.38526690	         -0.10447600	          0.00000000	          0.32912395	          0.00000000	          0.00000000	          0.00000000	          0.00000000	          2.18166200	          0.00000000	
          1.77500000	         -0.00000002	          0.00000061	         -0.00000002	          0.00000000	          0.00000000	          0.00000000	         47.52020648	        768.21105635	        -24.14273063	         -0.10248116	          0.00000000	          0.32920017	          0.00000000	          0.00000000	          0.00000000	          0.00000000	          2.00039168	          0.00000000	
          1.78000000	          0.00000001	          0.00000197	         -0.00000011	         -0.00000000	          0.00000000	         -0.00000000	         51.38772404	        775.47257787	        -24.32107514	         -0.10072689	          0.00000000	          0.32916118	          0.00000000	         -0.00000000	          0.00000000	          0.00000000	          1.82657326	          0.00000000	
          1.78500000	          0.00000024	         -0.00000046	         -0.00000010	         -0.00000002	          0.00000000	         -0.00000001	         55.78601477	        782.48382600	        -24.88420006	         -0.09909265	          0.00000000	          0.32904587	          0.00000000	         -0.00000001	          0.00000000	          0.00000000	          1.63719147	          0.00000000	
